<?xml version="1.0" encoding="utf-8"?>
<!-- Generator: Adobe Illustrator 26.2.1, SVG Export Plug-In . SVG Version: 6.00 Build 0)  -->
<svg version="1.1" id="Layer_1" xmlns="http://www.w3.org/2000/svg" xmlns:xlink="http://www.w3.org/1999/xlink" x="0px" y="0px"
	 viewBox="0 0 129.6 129.6" style="enable-background:new 0 0 129.6 129.6;" xml:space="preserve">
<style type="text/css">
	.st0{fill:#FFFFFF;}
	.st1{fill:#CF0A2C;}
</style>
<rect width="129.6" height="129.6"/>
<g>
	<polygon class="st0" points="38.1,59.8 38.1,46.8 33.8,55.3 30.9,55.3 26.6,46.8 26.6,59.8 22.3,59.8 22.3,37.5 26.6,37.5 
		32.4,49.6 38.2,37.5 42.4,37.5 42.4,59.8 	"/>
	<polygon class="st0" points="51.2,59.8 51.2,37.5 65.8,37.5 65.8,41.4 55.5,41.4 55.5,46.6 64.3,46.6 64.3,50.5 55.5,50.5 
		55.5,55.9 65.8,55.9 65.8,59.8 	"/>
	<polygon class="st0" points="82.8,41.4 82.8,59.8 78.4,59.8 78.4,41.4 72.6,41.4 72.6,37.5 88.6,37.5 88.6,41.4 	"/>
	<path class="st0" d="M101.5,44.1l-2.8,8.1h5.5L101.5,44.1z M106.7,59.8l-1.3-3.9h-7.9l-1.3,3.9h-4.5l8.1-22.3h3.4l8.1,22.3H106.7z"
		/>
	<polygon class="st0" points="51.4,92.7 51.4,70.4 55.8,70.4 55.8,88.8 65.9,88.8 65.9,92.7 	"/>
	<path class="st0" d="M80.4,77l-2.8,8.1h5.5L80.4,77z M85.6,92.7l-1.3-3.9h-7.9L75,92.7h-4.5l8.1-22.3H82l8.1,22.3H85.6z"/>
	<path class="st0" d="M104.4,83.3h-4.5v5.5h4.5c2,0,2.9-1.2,2.9-2.8C107.3,84.5,106.4,83.3,104.4,83.3 M104.1,74.3h-4.2v5.1h4.2
		c1.8,0,2.9-1,2.9-2.6C107,75.3,106,74.3,104.1,74.3 M104.8,92.7h-9.3V70.4h8.9c4.3,0,6.9,2.4,6.9,6.3c0,2.5-1.6,4.1-2.7,4.6
		c1.3,0.6,3.1,2,3.1,5C111.7,90.4,108.8,92.7,104.8,92.7"/>
	<polygon class="st1" points="33.6,82.5 33.6,91.7 31.2,91.7 31.2,82.5 22,82.5 22,80.1 31.2,80.1 31.2,71 33.6,71 33.6,80.1 
		42.7,80.1 42.7,82.5 	"/>
</g>
</svg>
